<svg width="300" height="318" viewBox="0 0 300 318" fill="none" xmlns="http://www.w3.org/2000/svg">
<path d="M64.95 233.3C53.89 233.3 44.23 229.38 35.97 221.54C27.71 213.56 23.58 203.97 23.58 192.77C23.58 181.15 27.92 171.14 36.6 162.74C45.56 154.06 55.71 149.72 67.05 149.72C75.73 149.72 82.73 152.38 88.05 157.7C93.09 162.88 95.61 169.95 95.61 178.91C95.61 185.49 92.67 191.51 86.79 196.97C81.05 202.29 74.89 204.95 68.31 204.95C62.85 204.95 58.09 203.69 54.03 201.17C49.27 198.23 46.89 194.1 46.89 188.78C46.89 186.26 47.59 183.81 48.99 181.43C50.53 178.49 52.42 177.02 54.66 177.02C55.22 177.02 55.5 177.23 55.5 177.65C55.5 177.79 54.87 178.42 53.61 179.54C52.35 180.8 51.51 181.85 51.09 182.69C50.25 184.51 49.83 186.47 49.83 188.57C49.83 192.91 51.44 196.48 54.66 199.28C57.88 202.08 61.59 203.48 65.79 203.48C72.79 203.48 78.6 200.54 83.22 194.66C87.56 189.34 89.73 183.04 89.73 175.76C89.73 168.34 87.7 162.53 83.64 158.33C79.58 153.85 73.91 151.61 66.63 151.61C55.71 151.61 46.82 155.53 39.96 163.37C33.52 170.65 30.3 179.89 30.3 191.09C30.3 207.75 37.79 219.58 52.77 226.58C57.81 228.82 62.71 229.94 67.47 229.94H69.78C72.58 229.52 75.17 228.89 77.55 228.05C80.07 227.21 82.31 226.3 84.27 225.32C91.13 221.68 97.64 216.01 103.8 208.31C109.96 200.61 115.84 190.95 121.44 179.33C126.34 168.97 133.69 149.86 143.49 122C147.97 109.54 154.13 97.92 161.97 87.14C171.07 74.82 180.73 66.28 190.95 61.52C172.75 61.52 158.26 63.41 147.48 67.19C131.94 72.51 121.93 82.1 117.45 95.96C116.89 97.78 116.61 99.74 116.61 101.84C116.61 105.2 117.66 108.07 119.76 110.45C121.86 112.83 124.66 114.02 128.16 114.02C135.02 114.02 139.78 109.61 142.44 100.79C143 99.25 143.28 98.06 143.28 97.22V95.54C143.14 95.12 143.07 94.7 143.07 94.28C143.21 94 143.42 93.86 143.7 93.86C144.26 93.86 144.54 94.77 144.54 96.59C144.54 101.91 143 106.39 139.92 110.03C136.56 113.95 132.36 115.91 127.32 115.91C122.7 115.91 119.06 114.37 116.4 111.29C113.74 108.49 112.41 104.78 112.41 100.16C112.41 99.32 112.41 98.55 112.41 97.85C112.55 97.01 112.69 96.31 112.83 95.75C115.63 82.03 125.5 72.02 142.44 65.72C155.04 61.24 169.81 59 186.75 59C193.47 59 197.04 59.21 197.46 59.63C196.9 59.77 195.99 60.19 194.73 60.89C193.61 61.45 192.14 62.5 190.32 64.04C175.48 75.8 164.56 93.44 157.56 116.96C148.6 146.64 139.15 169.81 129.21 186.47C113.67 212.37 95.12 227.7 73.56 232.46C72.16 232.6 70.76 232.74 69.36 232.88C67.96 233.16 66.49 233.3 64.95 233.3Z" fill="#DAA520"/>
<path d="M68.95 233.3C57.89 233.3 48.23 229.38 39.97 221.54C31.71 213.56 27.58 203.97 27.58 192.77C27.58 181.15 31.92 171.14 40.6 162.74C49.56 154.06 59.71 149.72 71.05 149.72C79.73 149.72 86.73 152.38 92.05 157.7C97.09 162.88 99.61 169.95 99.61 178.91C99.61 185.49 96.67 191.51 90.79 196.97C85.05 202.29 78.89 204.95 72.31 204.95C66.85 204.95 62.09 203.69 58.03 201.17C53.27 198.23 50.89 194.1 50.89 188.78C50.89 186.26 51.59 183.81 52.99 181.43C54.53 178.49 56.42 177.02 58.66 177.02C59.22 177.02 59.5 177.23 59.5 177.65C59.5 177.79 58.87 178.42 57.61 179.54C56.35 180.8 55.51 181.85 55.09 182.69C54.25 184.51 53.83 186.47 53.83 188.57C53.83 192.91 55.44 196.48 58.66 199.28C61.88 202.08 65.59 203.48 69.79 203.48C76.79 203.48 82.6 200.54 87.22 194.66C91.56 189.34 93.73 183.04 93.73 175.76C93.73 168.34 91.7 162.53 87.64 158.33C83.58 153.85 77.91 151.61 70.63 151.61C59.71 151.61 50.82 155.53 43.96 163.37C37.52 170.65 34.3 179.89 34.3 191.09C34.3 207.75 41.79 219.58 56.77 226.58C61.81 228.82 66.71 229.94 71.47 229.94H73.78C76.58 229.52 79.17 228.89 81.55 228.05C84.07 227.21 86.31 226.3 88.27 225.32C95.13 221.68 101.64 216.01 107.8 208.31C113.96 200.61 119.84 190.95 125.44 179.33C130.34 168.97 137.69 149.86 147.49 122C151.97 109.54 158.13 97.92 165.97 87.14C175.07 74.82 184.73 66.28 194.95 61.52C176.75 61.52 162.26 63.41 151.48 67.19C135.94 72.51 125.93 82.1 121.45 95.96C120.89 97.78 120.61 99.74 120.61 101.84C120.61 105.2 121.66 108.07 123.76 110.45C125.86 112.83 128.66 114.02 132.16 114.02C139.02 114.02 143.78 109.61 146.44 100.79C147 99.25 147.28 98.06 147.28 97.22V95.54C147.14 95.12 147.07 94.7 147.07 94.28C147.21 94 147.42 93.86 147.7 93.86C148.26 93.86 148.54 94.77 148.54 96.59C148.54 101.91 147 106.39 143.92 110.03C140.56 113.95 136.36 115.91 131.32 115.91C126.7 115.91 123.06 114.37 120.4 111.29C117.74 108.49 116.41 104.78 116.41 100.16C116.41 99.32 116.41 98.55 116.41 97.85C116.55 97.01 116.69 96.31 116.83 95.75C119.63 82.03 129.5 72.02 146.44 65.72C159.04 61.24 173.81 59 190.75 59C197.47 59 201.04 59.21 201.46 59.63C200.9 59.77 199.99 60.19 198.73 60.89C197.61 61.45 196.14 62.5 194.32 64.04C179.48 75.8 168.56 93.44 161.56 116.96C152.6 146.64 143.15 169.81 133.21 186.47C117.67 212.37 99.12 227.7 77.56 232.46C76.16 232.6 74.76 232.74 73.36 232.88C71.96 233.16 70.49 233.3 68.95 233.3Z" fill="#DAA520"/>
<path d="M71.95 233.3C60.89 233.3 51.23 229.38 42.97 221.54C34.71 213.56 30.58 203.97 30.58 192.77C30.58 181.15 34.92 171.14 43.6 162.74C52.56 154.06 62.71 149.72 74.05 149.72C82.73 149.72 89.73 152.38 95.05 157.7C100.09 162.88 102.61 169.95 102.61 178.91C102.61 185.49 99.67 191.51 93.79 196.97C88.05 202.29 81.89 204.95 75.31 204.95C69.85 204.95 65.09 203.69 61.03 201.17C56.27 198.23 53.89 194.1 53.89 188.78C53.89 186.26 54.59 183.81 55.99 181.43C57.53 178.49 59.42 177.02 61.66 177.02C62.22 177.02 62.5 177.23 62.5 177.65C62.5 177.79 61.87 178.42 60.61 179.54C59.35 180.8 58.51 181.85 58.09 182.69C57.25 184.51 56.83 186.47 56.83 188.57C56.83 192.91 58.44 196.48 61.66 199.28C64.88 202.08 68.59 203.48 72.79 203.48C79.79 203.48 85.6 200.54 90.22 194.66C94.56 189.34 96.73 183.04 96.73 175.76C96.73 168.34 94.7 162.53 90.64 158.33C86.58 153.85 80.91 151.61 73.63 151.61C62.71 151.61 53.82 155.53 46.96 163.37C40.52 170.65 37.3 179.89 37.3 191.09C37.3 207.75 44.79 219.58 59.77 226.58C64.81 228.82 69.71 229.94 74.47 229.94H76.78C79.58 229.52 82.17 228.89 84.55 228.05C87.07 227.21 89.31 226.3 91.27 225.32C98.13 221.68 104.64 216.01 110.8 208.31C116.96 200.61 122.84 190.95 128.44 179.33C133.34 168.97 140.69 149.86 150.49 122C154.97 109.54 161.13 97.92 168.97 87.14C178.07 74.82 187.73 66.28 197.95 61.52C179.75 61.52 165.26 63.41 154.48 67.19C138.94 72.51 128.93 82.1 124.45 95.96C123.89 97.78 123.61 99.74 123.61 101.84C123.61 105.2 124.66 108.07 126.76 110.45C128.86 112.83 131.66 114.02 135.16 114.02C142.02 114.02 146.78 109.61 149.44 100.79C150 99.25 150.28 98.06 150.28 97.22V95.54C150.14 95.12 150.07 94.7 150.07 94.28C150.21 94 150.42 93.86 150.7 93.86C151.26 93.86 151.54 94.77 151.54 96.59C151.54 101.91 150 106.39 146.92 110.03C143.56 113.95 139.36 115.91 134.32 115.91C129.7 115.91 126.06 114.37 123.4 111.29C120.74 108.49 119.41 104.78 119.41 100.16C119.41 99.32 119.41 98.55 119.41 97.85C119.55 97.01 119.69 96.31 119.83 95.75C122.63 82.03 132.5 72.02 149.44 65.72C162.04 61.24 176.81 59 193.75 59C200.47 59 204.04 59.21 204.46 59.63C203.9 59.77 202.99 60.19 201.73 60.89C200.61 61.45 199.14 62.5 197.32 64.04C182.48 75.8 171.56 93.44 164.56 116.96C155.6 146.64 146.15 169.81 136.21 186.47C120.67 212.37 102.12 227.7 80.56 232.46C79.16 232.6 77.76 232.74 76.36 232.88C74.96 233.16 73.49 233.3 71.95 233.3Z" fill="#DAA520"/>
<path d="M141.84 246.44C133.907 246.44 129.94 243.777 129.94 238.45C129.94 236.07 130.62 234.143 131.98 232.67C133.567 230.97 135.38 230.12 137.42 230.12C138.893 230.12 139.63 230.517 139.63 231.31C139.63 231.99 139.46 232.33 139.12 232.33C139.007 232.33 138.61 232.217 137.93 231.99C137.59 231.877 137.193 231.82 136.74 231.82C135.493 231.82 134.417 232.443 133.51 233.69C132.603 234.71 132.15 235.957 132.15 237.43C132.15 239.697 133.397 241.51 135.89 242.87C138.157 243.89 140.48 244.4 142.86 244.4C151.587 244.4 159.577 240.943 166.83 234.03C169.663 231.423 172.44 228.193 175.16 224.34C177.993 220.487 180.77 216.01 183.49 210.91C183.49 210.797 184.453 208.7 186.38 204.62C188.42 200.54 191.367 194.533 195.22 186.6C204.74 167.107 215.507 153.167 227.52 144.78C220.607 142.173 211.993 140.87 201.68 140.87C195.787 140.87 190.233 141.38 185.02 142.4C179.807 143.307 174.877 144.723 170.23 146.65C159.237 151.07 151.077 157.7 145.75 166.54C142.463 172.093 140.82 177.59 140.82 183.03C140.82 188.81 142.633 193.627 146.26 197.48C149.887 201.447 154.59 203.43 160.37 203.43C166.83 203.43 172.553 201.107 177.54 196.46C182.527 191.7 185.02 186.147 185.02 179.8C185.02 175.38 183.83 171.753 181.45 168.92C178.957 165.973 175.5 164.5 171.08 164.5C167.793 164.5 164.847 165.52 162.24 167.56C159.633 169.827 158.33 172.66 158.33 176.06C158.33 178.78 159.803 180.14 162.75 180.14C162.977 180.14 163.147 179.97 163.26 179.63C163.6 179.29 163.883 179.12 164.11 179.12C164.337 179.233 164.45 179.403 164.45 179.63C164.45 180.763 163.827 181.33 162.58 181.33C158.727 181.33 156.8 179.517 156.8 175.89C156.8 172.263 158.443 169.09 161.73 166.37C164.903 163.763 168.303 162.46 171.93 162.46C176.803 162.46 180.77 164.047 183.83 167.22C187.003 170.393 188.59 174.417 188.59 179.29C188.59 186.77 185.643 193.06 179.75 198.16C174.197 202.92 167.623 205.3 160.03 205.3C152.89 205.3 147.053 203.203 142.52 199.01C137.647 194.477 135.21 188.867 135.21 182.18C135.21 177.42 136.4 172.773 138.78 168.24C143.993 157.927 153.173 150.22 166.32 145.12C177.087 140.927 189.327 138.83 203.04 138.83C213.24 138.83 222.42 140.133 230.58 142.74C238.287 138.207 245.257 135.94 251.49 135.94C252.397 135.94 252.85 136.053 252.85 136.28C252.85 136.62 252.68 136.79 252.34 136.79C251.887 136.79 251.207 136.847 250.3 136.96C249.507 136.96 248.6 137.017 247.58 137.13C242.367 137.81 237.437 139.963 232.79 143.59C244.917 148.237 250.98 154.98 250.98 163.82C250.98 172.093 246.73 178.95 238.23 184.39C231.43 188.697 223.327 191.36 213.92 192.38C215.167 195.78 216.13 200.313 216.81 205.98C217.15 209.04 217.433 212.1 217.66 215.16C217.887 218.22 218.227 221.28 218.68 224.34C219.927 233.293 222.137 238.337 225.31 239.47C226.783 240.037 228.143 240.32 229.39 240.32C234.377 240.32 239.76 236.977 245.54 230.29C250.527 224.283 253.757 218.503 255.23 212.95L255.57 212.78L256.42 213.12V213.46C254.267 219.92 250.47 226.323 245.03 232.67C238.57 239.923 232.393 243.55 226.5 243.55C224.007 243.55 221.683 242.757 219.53 241.17C215.563 238.563 212.9 234.03 211.54 227.57C211.2 225.643 210.917 223.207 210.69 220.26C210.463 217.313 210.293 213.743 210.18 209.55C210.18 201.73 209.727 196.177 208.82 192.89H205.42C204.627 192.89 203.833 192.89 203.04 192.89C202.36 192.777 201.737 192.663 201.17 192.55C195.05 207.283 189.043 218.277 183.15 225.53C174.65 235.73 164.223 242.247 151.87 245.08C148.017 245.987 144.673 246.44 141.84 246.44ZM213.07 190.34C220.89 188.98 227.69 186.26 233.47 182.18C240.27 177.08 243.67 170.903 243.67 163.65C243.67 155.83 239.137 149.88 230.07 145.8C225.763 149.54 221.513 154.527 217.32 160.76C213.24 166.993 209.217 174.473 205.25 183.2C208.763 184.56 211.37 186.94 213.07 190.34ZM205.59 190.85H206.78L208.31 190.68C207.29 188.073 205.987 186.26 204.4 185.24C204.06 185.807 203.72 186.543 203.38 187.45C203.04 188.357 202.587 189.433 202.02 190.68C202.587 190.68 203.153 190.737 203.72 190.85C204.4 190.85 205.023 190.85 205.59 190.85Z" fill="#DAA520"/>
<path d="M141.84 248.44C133.907 248.44 129.94 245.777 129.94 240.45C129.94 238.07 130.62 236.143 131.98 234.67C133.567 232.97 135.38 232.12 137.42 232.12C138.893 232.12 139.63 232.517 139.63 233.31C139.63 233.99 139.46 234.33 139.12 234.33C139.007 234.33 138.61 234.217 137.93 233.99C137.59 233.877 137.193 233.82 136.74 233.82C135.493 233.82 134.417 234.443 133.51 235.69C132.603 236.71 132.15 237.957 132.15 239.43C132.15 241.697 133.397 243.51 135.89 244.87C138.157 245.89 140.48 246.4 142.86 246.4C151.587 246.4 159.577 242.943 166.83 236.03C169.663 233.423 172.44 230.193 175.16 226.34C177.993 222.487 180.77 218.01 183.49 212.91C183.49 212.797 184.453 210.7 186.38 206.62C188.42 202.54 191.367 196.533 195.22 188.6C204.74 169.107 215.507 155.167 227.52 146.78C220.607 144.173 211.993 142.87 201.68 142.87C195.787 142.87 190.233 143.38 185.02 144.4C179.807 145.307 174.877 146.723 170.23 148.65C159.237 153.07 151.077 159.7 145.75 168.54C142.463 174.093 140.82 179.59 140.82 185.03C140.82 190.81 142.633 195.627 146.26 199.48C149.887 203.447 154.59 205.43 160.37 205.43C166.83 205.43 172.553 203.107 177.54 198.46C182.527 193.7 185.02 188.147 185.02 181.8C185.02 177.38 183.83 173.753 181.45 170.92C178.957 167.973 175.5 166.5 171.08 166.5C167.793 166.5 164.847 167.52 162.24 169.56C159.633 171.827 158.33 174.66 158.33 178.06C158.33 180.78 159.803 182.14 162.75 182.14C162.977 182.14 163.147 181.97 163.26 181.63C163.6 181.29 163.883 181.12 164.11 181.12C164.337 181.233 164.45 181.403 164.45 181.63C164.45 182.763 163.827 183.33 162.58 183.33C158.727 183.33 156.8 181.517 156.8 177.89C156.8 174.263 158.443 171.09 161.73 168.37C164.903 165.763 168.303 164.46 171.93 164.46C176.803 164.46 180.77 166.047 183.83 169.22C187.003 172.393 188.59 176.417 188.59 181.29C188.59 188.77 185.643 195.06 179.75 200.16C174.197 204.92 167.623 207.3 160.03 207.3C152.89 207.3 147.053 205.203 142.52 201.01C137.647 196.477 135.21 190.867 135.21 184.18C135.21 179.42 136.4 174.773 138.78 170.24C143.993 159.927 153.173 152.22 166.32 147.12C177.087 142.927 189.327 140.83 203.04 140.83C213.24 140.83 222.42 142.133 230.58 144.74C238.287 140.207 245.257 137.94 251.49 137.94C252.397 137.94 252.85 138.053 252.85 138.28C252.85 138.62 252.68 138.79 252.34 138.79C251.887 138.79 251.207 138.847 250.3 138.96C249.507 138.96 248.6 139.017 247.58 139.13C242.367 139.81 237.437 141.963 232.79 145.59C244.917 150.237 250.98 156.98 250.98 165.82C250.98 174.093 246.73 180.95 238.23 186.39C231.43 190.697 223.327 193.36 213.92 194.38C215.167 197.78 216.13 202.313 216.81 207.98C217.15 211.04 217.433 214.1 217.66 217.16C217.887 220.22 218.227 223.28 218.68 226.34C219.927 235.293 222.137 240.337 225.31 241.47C226.783 242.037 228.143 242.32 229.39 242.32C234.377 242.32 239.76 238.977 245.54 232.29C250.527 226.283 253.757 220.503 255.23 214.95L255.57 214.78L256.42 215.12V215.46C254.267 221.92 250.47 228.323 245.03 234.67C238.57 241.923 232.393 245.55 226.5 245.55C224.007 245.55 221.683 244.757 219.53 243.17C215.563 240.563 212.9 236.03 211.54 229.57C211.2 227.643 210.917 225.207 210.69 222.26C210.463 219.313 210.293 215.743 210.18 211.55C210.18 203.73 209.727 198.177 208.82 194.89H205.42C204.627 194.89 203.833 194.89 203.04 194.89C202.36 194.777 201.737 194.663 201.17 194.55C195.05 209.283 189.043 220.277 183.15 227.53C174.65 237.73 164.223 244.247 151.87 247.08C148.017 247.987 144.673 248.44 141.84 248.44ZM213.07 192.34C220.89 190.98 227.69 188.26 233.47 184.18C240.27 179.08 243.67 172.903 243.67 165.65C243.67 157.83 239.137 151.88 230.07 147.8C225.763 151.54 221.513 156.527 217.32 162.76C213.24 168.993 209.217 176.473 205.25 185.2C208.763 186.56 211.37 188.94 213.07 192.34ZM205.59 192.85H206.78L208.31 192.68C207.29 190.073 205.987 188.26 204.4 187.24C204.06 187.807 203.72 188.543 203.38 189.45C203.04 190.357 202.587 191.433 202.02 192.68C202.587 192.68 203.153 192.737 203.72 192.85C204.4 192.85 205.023 192.85 205.59 192.85Z" fill="#DAA520"/>
<path d="M141.84 249.44C133.907 249.44 129.94 246.777 129.94 241.45C129.94 239.07 130.62 237.143 131.98 235.67C133.567 233.97 135.38 233.12 137.42 233.12C138.893 233.12 139.63 233.517 139.63 234.31C139.63 234.99 139.46 235.33 139.12 235.33C139.007 235.33 138.61 235.217 137.93 234.99C137.59 234.877 137.193 234.82 136.74 234.82C135.493 234.82 134.417 235.443 133.51 236.69C132.603 237.71 132.15 238.957 132.15 240.43C132.15 242.697 133.397 244.51 135.89 245.87C138.157 246.89 140.48 247.4 142.86 247.4C151.587 247.4 159.577 243.943 166.83 237.03C169.663 234.423 172.44 231.193 175.16 227.34C177.993 223.487 180.77 219.01 183.49 213.91C183.49 213.797 184.453 211.7 186.38 207.62C188.42 203.54 191.367 197.533 195.22 189.6C204.74 170.107 215.507 156.167 227.52 147.78C220.607 145.173 211.993 143.87 201.68 143.87C195.787 143.87 190.233 144.38 185.02 145.4C179.807 146.307 174.877 147.723 170.23 149.65C159.237 154.07 151.077 160.7 145.75 169.54C142.463 175.093 140.82 180.59 140.82 186.03C140.82 191.81 142.633 196.627 146.26 200.48C149.887 204.447 154.59 206.43 160.37 206.43C166.83 206.43 172.553 204.107 177.54 199.46C182.527 194.7 185.02 189.147 185.02 182.8C185.02 178.38 183.83 174.753 181.45 171.92C178.957 168.973 175.5 167.5 171.08 167.5C167.793 167.5 164.847 168.52 162.24 170.56C159.633 172.827 158.33 175.66 158.33 179.06C158.33 181.78 159.803 183.14 162.75 183.14C162.977 183.14 163.147 182.97 163.26 182.63C163.6 182.29 163.883 182.12 164.11 182.12C164.337 182.233 164.45 182.403 164.45 182.63C164.45 183.763 163.827 184.33 162.58 184.33C158.727 184.33 156.8 182.517 156.8 178.89C156.8 175.263 158.443 172.09 161.73 169.37C164.903 166.763 168.303 165.46 171.93 165.46C176.803 165.46 180.77 167.047 183.83 170.22C187.003 173.393 188.59 177.417 188.59 182.29C188.59 189.77 185.643 196.06 179.75 201.16C174.197 205.92 167.623 208.3 160.03 208.3C152.89 208.3 147.053 206.203 142.52 202.01C137.647 197.477 135.21 191.867 135.21 185.18C135.21 180.42 136.4 175.773 138.78 171.24C143.993 160.927 153.173 153.22 166.32 148.12C177.087 143.927 189.327 141.83 203.04 141.83C213.24 141.83 222.42 143.133 230.58 145.74C238.287 141.207 245.257 138.94 251.49 138.94C252.397 138.94 252.85 139.053 252.85 139.28C252.85 139.62 252.68 139.79 252.34 139.79C251.887 139.79 251.207 139.847 250.3 139.96C249.507 139.96 248.6 140.017 247.58 140.13C242.367 140.81 237.437 142.963 232.79 146.59C244.917 151.237 250.98 157.98 250.98 166.82C250.98 175.093 246.73 181.95 238.23 187.39C231.43 191.697 223.327 194.36 213.92 195.38C215.167 198.78 216.13 203.313 216.81 208.98C217.15 212.04 217.433 215.1 217.66 218.16C217.887 221.22 218.227 224.28 218.68 227.34C219.927 236.293 222.137 241.337 225.31 242.47C226.783 243.037 228.143 243.32 229.39 243.32C234.377 243.32 239.76 239.977 245.54 233.29C250.527 227.283 253.757 221.503 255.23 215.95L255.57 215.78L256.42 216.12V216.46C254.267 222.92 250.47 229.323 245.03 235.67C238.57 242.923 232.393 246.55 226.5 246.55C224.007 246.55 221.683 245.757 219.53 244.17C215.563 241.563 212.9 237.03 211.54 230.57C211.2 228.643 210.917 226.207 210.69 223.26C210.463 220.313 210.293 216.743 210.18 212.55C210.18 204.73 209.727 199.177 208.82 195.89H205.42C204.627 195.89 203.833 195.89 203.04 195.89C202.36 195.777 201.737 195.663 201.17 195.55C195.05 210.283 189.043 221.277 183.15 228.53C174.65 238.73 164.223 245.247 151.87 248.08C148.017 248.987 144.673 249.44 141.84 249.44ZM213.07 193.34C220.89 191.98 227.69 189.26 233.47 185.18C240.27 180.08 243.67 173.903 243.67 166.65C243.67 158.83 239.137 152.88 230.07 148.8C225.763 152.54 221.513 157.527 217.32 163.76C213.24 169.993 209.217 177.473 205.25 186.2C208.763 187.56 211.37 189.94 213.07 193.34ZM205.59 193.85H206.78L208.31 193.68C207.29 191.073 205.987 189.26 204.4 188.24C204.06 188.807 203.72 189.543 203.38 190.45C203.04 191.357 202.587 192.433 202.02 193.68C202.587 193.68 203.153 193.737 203.72 193.85C204.4 193.85 205.023 193.85 205.59 193.85Z" fill="#DAA520"/>
<path d="M141.84 251.44C133.907 251.44 129.94 248.777 129.94 243.45C129.94 241.07 130.62 239.143 131.98 237.67C133.567 235.97 135.38 235.12 137.42 235.12C138.893 235.12 139.63 235.517 139.63 236.31C139.63 236.99 139.46 237.33 139.12 237.33C139.007 237.33 138.61 237.217 137.93 236.99C137.59 236.877 137.193 236.82 136.74 236.82C135.493 236.82 134.417 237.443 133.51 238.69C132.603 239.71 132.15 240.957 132.15 242.43C132.15 244.697 133.397 246.51 135.89 247.87C138.157 248.89 140.48 249.4 142.86 249.4C151.587 249.4 159.577 245.943 166.83 239.03C169.663 236.423 172.44 233.193 175.16 229.34C177.993 225.487 180.77 221.01 183.49 215.91C183.49 215.797 184.453 213.7 186.38 209.62C188.42 205.54 191.367 199.533 195.22 191.6C204.74 172.107 215.507 158.167 227.52 149.78C220.607 147.173 211.993 145.87 201.68 145.87C195.787 145.87 190.233 146.38 185.02 147.4C179.807 148.307 174.877 149.723 170.23 151.65C159.237 156.07 151.077 162.7 145.75 171.54C142.463 177.093 140.82 182.59 140.82 188.03C140.82 193.81 142.633 198.627 146.26 202.48C149.887 206.447 154.59 208.43 160.37 208.43C166.83 208.43 172.553 206.107 177.54 201.46C182.527 196.7 185.02 191.147 185.02 184.8C185.02 180.38 183.83 176.753 181.45 173.92C178.957 170.973 175.5 169.5 171.08 169.5C167.793 169.5 164.847 170.52 162.24 172.56C159.633 174.827 158.33 177.66 158.33 181.06C158.33 183.78 159.803 185.14 162.75 185.14C162.977 185.14 163.147 184.97 163.26 184.63C163.6 184.29 163.883 184.12 164.11 184.12C164.337 184.233 164.45 184.403 164.45 184.63C164.45 185.763 163.827 186.33 162.58 186.33C158.727 186.33 156.8 184.517 156.8 180.89C156.8 177.263 158.443 174.09 161.73 171.37C164.903 168.763 168.303 167.46 171.93 167.46C176.803 167.46 180.77 169.047 183.83 172.22C187.003 175.393 188.59 179.417 188.59 184.29C188.59 191.77 185.643 198.06 179.75 203.16C174.197 207.92 167.623 210.3 160.03 210.3C152.89 210.3 147.053 208.203 142.52 204.01C137.647 199.477 135.21 193.867 135.21 187.18C135.21 182.42 136.4 177.773 138.78 173.24C143.993 162.927 153.173 155.22 166.32 150.12C177.087 145.927 189.327 143.83 203.04 143.83C213.24 143.83 222.42 145.133 230.58 147.74C238.287 143.207 245.257 140.94 251.49 140.94C252.397 140.94 252.85 141.053 252.85 141.28C252.85 141.62 252.68 141.79 252.34 141.79C251.887 141.79 251.207 141.847 250.3 141.96C249.507 141.96 248.6 142.017 247.58 142.13C242.367 142.81 237.437 144.963 232.79 148.59C244.917 153.237 250.98 159.98 250.98 168.82C250.98 177.093 246.73 183.95 238.23 189.39C231.43 193.697 223.327 196.36 213.92 197.38C215.167 200.78 216.13 205.313 216.81 210.98C217.15 214.04 217.433 217.1 217.66 220.16C217.887 223.22 218.227 226.28 218.68 229.34C219.927 238.293 222.137 243.337 225.31 244.47C226.783 245.037 228.143 245.32 229.39 245.32C234.377 245.32 239.76 241.977 245.54 235.29C250.527 229.283 253.757 223.503 255.23 217.95L255.57 217.78L256.42 218.12V218.46C254.267 224.92 250.47 231.323 245.03 237.67C238.57 244.923 232.393 248.55 226.5 248.55C224.007 248.55 221.683 247.757 219.53 246.17C215.563 243.563 212.9 239.03 211.54 232.57C211.2 230.643 210.917 228.207 210.69 225.26C210.463 222.313 210.293 218.743 210.18 214.55C210.18 206.73 209.727 201.177 208.82 197.89H205.42C204.627 197.89 203.833 197.89 203.04 197.89C202.36 197.777 201.737 197.663 201.17 197.55C195.05 212.283 189.043 223.277 183.15 230.53C174.65 240.73 164.223 247.247 151.87 250.08C148.017 250.987 144.673 251.44 141.84 251.44ZM213.07 195.34C220.89 193.98 227.69 191.26 233.47 187.18C240.27 182.08 243.67 175.903 243.67 168.65C243.67 160.83 239.137 154.88 230.07 150.8C225.763 154.54 221.513 159.527 217.32 165.76C213.24 171.993 209.217 179.473 205.25 188.2C208.763 189.56 211.37 191.94 213.07 195.34ZM205.59 195.85H206.78L208.31 195.68C207.29 193.073 205.987 191.26 204.4 190.24C204.06 190.807 203.72 191.543 203.38 192.45C203.04 193.357 202.587 194.433 202.02 195.68C202.587 195.68 203.153 195.737 203.72 195.85C204.4 195.85 205.023 195.85 205.59 195.85Z" fill="#DAA520"/>
<ellipse cx="68" cy="272.5" rx="10" ry="9.5" fill="#00FF0A"/>
<ellipse cx="101" cy="272.5" rx="10" ry="9.5" fill="#FFE600"/>
<ellipse cx="134" cy="272.5" rx="10" ry="9.5" fill="#FF001F"/>
<ellipse cx="166" cy="272.5" rx="10" ry="9.5" fill="#00FFD1"/>
<ellipse cx="197" cy="272.5" rx="10" ry="9.5" fill="#00FF0A"/>
<ellipse cx="229" cy="272.5" rx="10" ry="9.5" fill="#FF8A00"/>
</svg>
