<svg width="256" height="256" viewBox="0 0 256 256" fill="none" xmlns="http://www.w3.org/2000/svg">
<rect x="1.5" y="1.5" width="253" height="253" rx="126.5" fill="black" stroke="#BD9660" stroke-width="3"/>
<path d="M43.92 197L48.96 185.8H51.008L56.064 197H53.888L49.552 186.904H50.384L46.064 197H43.92ZM46.24 194.408L46.8 192.776H52.848L53.408 194.408H46.24ZM65.4884 197V185.8H70.3844C71.6004 185.8 72.667 186.035 73.5844 186.504C74.5017 186.973 75.2164 187.624 75.7284 188.456C76.2404 189.288 76.4964 190.269 76.4964 191.4C76.4964 192.52 76.2404 193.501 75.7284 194.344C75.2164 195.176 74.5017 195.827 73.5844 196.296C72.667 196.765 71.6004 197 70.3844 197H65.4884ZM67.5684 195.24H70.2884C71.131 195.24 71.8564 195.08 72.4644 194.76C73.083 194.44 73.5577 193.992 73.8884 193.416C74.2297 192.84 74.4004 192.168 74.4004 191.4C74.4004 190.621 74.2297 189.949 73.8884 189.384C73.5577 188.808 73.083 188.36 72.4644 188.04C71.8564 187.72 71.131 187.56 70.2884 187.56H67.5684V195.24ZM89.6754 197L84.7794 185.8H87.0354L91.4034 195.928H90.1074L94.5234 185.8H96.6034L91.7234 197H89.6754ZM110.924 197.16C110.049 197.16 109.244 197.016 108.508 196.728C107.772 196.44 107.132 196.04 106.588 195.528C106.044 195.005 105.623 194.397 105.324 193.704C105.025 193 104.876 192.232 104.876 191.4C104.876 190.568 105.025 189.805 105.324 189.112C105.623 188.408 106.044 187.8 106.588 187.288C107.132 186.765 107.772 186.36 108.508 186.072C109.244 185.784 110.044 185.64 110.908 185.64C111.783 185.64 112.583 185.784 113.308 186.072C114.044 186.36 114.684 186.765 115.228 187.288C115.772 187.8 116.193 188.408 116.492 189.112C116.791 189.805 116.94 190.568 116.94 191.4C116.94 192.232 116.791 193 116.492 193.704C116.193 194.408 115.772 195.016 115.228 195.528C114.684 196.04 114.044 196.44 113.308 196.728C112.583 197.016 111.788 197.16 110.924 197.16ZM110.908 195.336C111.473 195.336 111.996 195.24 112.476 195.048C112.956 194.856 113.372 194.584 113.724 194.232C114.076 193.869 114.348 193.453 114.54 192.984C114.743 192.504 114.844 191.976 114.844 191.4C114.844 190.824 114.743 190.301 114.54 189.832C114.348 189.352 114.076 188.936 113.724 188.584C113.372 188.221 112.956 187.944 112.476 187.752C111.996 187.56 111.473 187.464 110.908 187.464C110.343 187.464 109.82 187.56 109.34 187.752C108.871 187.944 108.455 188.221 108.092 188.584C107.74 188.936 107.463 189.352 107.26 189.832C107.068 190.301 106.972 190.824 106.972 191.4C106.972 191.965 107.068 192.488 107.26 192.968C107.463 193.448 107.74 193.869 108.092 194.232C108.444 194.584 108.86 194.856 109.34 195.048C109.82 195.24 110.343 195.336 110.908 195.336ZM132.377 197.16C131.502 197.16 130.697 197.021 129.961 196.744C129.235 196.456 128.601 196.056 128.057 195.544C127.513 195.021 127.091 194.408 126.793 193.704C126.494 193 126.345 192.232 126.345 191.4C126.345 190.568 126.494 189.8 126.793 189.096C127.091 188.392 127.513 187.784 128.057 187.272C128.611 186.749 129.257 186.349 129.993 186.072C130.729 185.784 131.534 185.64 132.409 185.64C133.358 185.64 134.211 185.795 134.969 186.104C135.737 186.413 136.382 186.867 136.905 187.464L135.593 188.744C135.155 188.307 134.681 187.987 134.169 187.784C133.667 187.571 133.113 187.464 132.505 187.464C131.918 187.464 131.374 187.56 130.873 187.752C130.371 187.944 129.939 188.216 129.577 188.568C129.214 188.92 128.931 189.336 128.729 189.816C128.537 190.296 128.441 190.824 128.441 191.4C128.441 191.965 128.537 192.488 128.729 192.968C128.931 193.448 129.214 193.869 129.577 194.232C129.939 194.584 130.366 194.856 130.857 195.048C131.347 195.24 131.891 195.336 132.489 195.336C133.043 195.336 133.577 195.251 134.089 195.08C134.611 194.899 135.107 194.6 135.577 194.184L136.761 195.736C136.174 196.205 135.491 196.563 134.713 196.808C133.945 197.043 133.166 197.16 132.377 197.16ZM134.793 195.464V191.272H136.761V195.736L134.793 195.464ZM145.92 197L150.96 185.8H153.008L158.064 197H155.888L151.552 186.904H152.384L148.064 197H145.92ZM148.24 194.408L148.8 192.776H154.848L155.408 194.408H148.24ZM167.488 197V185.8H172.384C173.6 185.8 174.667 186.035 175.584 186.504C176.502 186.973 177.216 187.624 177.728 188.456C178.24 189.288 178.496 190.269 178.496 191.4C178.496 192.52 178.24 193.501 177.728 194.344C177.216 195.176 176.502 195.827 175.584 196.296C174.667 196.765 173.6 197 172.384 197H167.488ZM169.568 195.24H172.288C173.131 195.24 173.856 195.08 174.464 194.76C175.083 194.44 175.558 193.992 175.888 193.416C176.23 192.84 176.4 192.168 176.4 191.4C176.4 190.621 176.23 189.949 175.888 189.384C175.558 188.808 175.083 188.36 174.464 188.04C173.856 187.72 173.131 187.56 172.288 187.56H169.568V195.24ZM186.967 197L192.007 185.8H194.055L199.111 197H196.935L192.599 186.904H193.431L189.111 197H186.967ZM189.287 194.408L189.847 192.776H195.895L196.455 194.408H189.287Z" fill="#BD9660"/>
<path d="M43.92 197L48.96 185.8H51.008L56.064 197H53.888L49.552 186.904H50.384L46.064 197H43.92ZM46.24 194.408L46.8 192.776H52.848L53.408 194.408H46.24ZM65.4884 197V185.8H70.3844C71.6004 185.8 72.667 186.035 73.5844 186.504C74.5017 186.973 75.2164 187.624 75.7284 188.456C76.2404 189.288 76.4964 190.269 76.4964 191.4C76.4964 192.52 76.2404 193.501 75.7284 194.344C75.2164 195.176 74.5017 195.827 73.5844 196.296C72.667 196.765 71.6004 197 70.3844 197H65.4884ZM67.5684 195.24H70.2884C71.131 195.24 71.8564 195.08 72.4644 194.76C73.083 194.44 73.5577 193.992 73.8884 193.416C74.2297 192.84 74.4004 192.168 74.4004 191.4C74.4004 190.621 74.2297 189.949 73.8884 189.384C73.5577 188.808 73.083 188.36 72.4644 188.04C71.8564 187.72 71.131 187.56 70.2884 187.56H67.5684V195.24ZM89.6754 197L84.7794 185.8H87.0354L91.4034 195.928H90.1074L94.5234 185.8H96.6034L91.7234 197H89.6754ZM110.924 197.16C110.049 197.16 109.244 197.016 108.508 196.728C107.772 196.44 107.132 196.04 106.588 195.528C106.044 195.005 105.623 194.397 105.324 193.704C105.025 193 104.876 192.232 104.876 191.4C104.876 190.568 105.025 189.805 105.324 189.112C105.623 188.408 106.044 187.8 106.588 187.288C107.132 186.765 107.772 186.36 108.508 186.072C109.244 185.784 110.044 185.64 110.908 185.64C111.783 185.64 112.583 185.784 113.308 186.072C114.044 186.36 114.684 186.765 115.228 187.288C115.772 187.8 116.193 188.408 116.492 189.112C116.791 189.805 116.94 190.568 116.94 191.4C116.94 192.232 116.791 193 116.492 193.704C116.193 194.408 115.772 195.016 115.228 195.528C114.684 196.04 114.044 196.44 113.308 196.728C112.583 197.016 111.788 197.16 110.924 197.16ZM110.908 195.336C111.473 195.336 111.996 195.24 112.476 195.048C112.956 194.856 113.372 194.584 113.724 194.232C114.076 193.869 114.348 193.453 114.54 192.984C114.743 192.504 114.844 191.976 114.844 191.4C114.844 190.824 114.743 190.301 114.54 189.832C114.348 189.352 114.076 188.936 113.724 188.584C113.372 188.221 112.956 187.944 112.476 187.752C111.996 187.56 111.473 187.464 110.908 187.464C110.343 187.464 109.82 187.56 109.34 187.752C108.871 187.944 108.455 188.221 108.092 188.584C107.74 188.936 107.463 189.352 107.26 189.832C107.068 190.301 106.972 190.824 106.972 191.4C106.972 191.965 107.068 192.488 107.26 192.968C107.463 193.448 107.74 193.869 108.092 194.232C108.444 194.584 108.86 194.856 109.34 195.048C109.82 195.24 110.343 195.336 110.908 195.336ZM132.377 197.16C131.502 197.16 130.697 197.021 129.961 196.744C129.235 196.456 128.601 196.056 128.057 195.544C127.513 195.021 127.091 194.408 126.793 193.704C126.494 193 126.345 192.232 126.345 191.4C126.345 190.568 126.494 189.8 126.793 189.096C127.091 188.392 127.513 187.784 128.057 187.272C128.611 186.749 129.257 186.349 129.993 186.072C130.729 185.784 131.534 185.64 132.409 185.64C133.358 185.64 134.211 185.795 134.969 186.104C135.737 186.413 136.382 186.867 136.905 187.464L135.593 188.744C135.155 188.307 134.681 187.987 134.169 187.784C133.667 187.571 133.113 187.464 132.505 187.464C131.918 187.464 131.374 187.56 130.873 187.752C130.371 187.944 129.939 188.216 129.577 188.568C129.214 188.92 128.931 189.336 128.729 189.816C128.537 190.296 128.441 190.824 128.441 191.4C128.441 191.965 128.537 192.488 128.729 192.968C128.931 193.448 129.214 193.869 129.577 194.232C129.939 194.584 130.366 194.856 130.857 195.048C131.347 195.24 131.891 195.336 132.489 195.336C133.043 195.336 133.577 195.251 134.089 195.08C134.611 194.899 135.107 194.6 135.577 194.184L136.761 195.736C136.174 196.205 135.491 196.563 134.713 196.808C133.945 197.043 133.166 197.16 132.377 197.16ZM134.793 195.464V191.272H136.761V195.736L134.793 195.464ZM145.92 197L150.96 185.8H153.008L158.064 197H155.888L151.552 186.904H152.384L148.064 197H145.92ZM148.24 194.408L148.8 192.776H154.848L155.408 194.408H148.24ZM167.488 197V185.8H172.384C173.6 185.8 174.667 186.035 175.584 186.504C176.502 186.973 177.216 187.624 177.728 188.456C178.24 189.288 178.496 190.269 178.496 191.4C178.496 192.52 178.24 193.501 177.728 194.344C177.216 195.176 176.502 195.827 175.584 196.296C174.667 196.765 173.6 197 172.384 197H167.488ZM169.568 195.24H172.288C173.131 195.24 173.856 195.08 174.464 194.76C175.083 194.44 175.558 193.992 175.888 193.416C176.23 192.84 176.4 192.168 176.4 191.4C176.4 190.621 176.23 189.949 175.888 189.384C175.558 188.808 175.083 188.36 174.464 188.04C173.856 187.72 173.131 187.56 172.288 187.56H169.568V195.24ZM186.967 197L192.007 185.8H194.055L199.111 197H196.935L192.599 186.904H193.431L189.111 197H186.967ZM189.287 194.408L189.847 192.776H195.895L196.455 194.408H189.287Z" fill="#BD9660"/>
<path d="M65.96 162.44C59.2187 162.44 53.3307 160.051 48.296 155.272C43.2613 150.408 40.744 144.563 40.744 137.736C40.744 130.653 43.3893 124.552 48.68 119.432C54.1413 114.141 60.328 111.496 67.24 111.496C72.5307 111.496 76.7973 113.117 80.04 116.36C83.112 119.517 84.648 123.827 84.648 129.288C84.648 133.299 82.856 136.968 79.272 140.296C75.7733 143.539 72.0187 145.16 68.008 145.16C64.68 145.16 61.7787 144.392 59.304 142.856C56.4027 141.064 54.952 138.547 54.952 135.304C54.952 133.768 55.3787 132.275 56.232 130.824C57.1707 129.032 58.3227 128.136 59.688 128.136C60.0293 128.136 60.2 128.264 60.2 128.52C60.2 128.605 59.816 128.989 59.048 129.672C58.28 130.44 57.768 131.08 57.512 131.592C57 132.701 56.744 133.896 56.744 135.176C56.744 137.821 57.7253 139.997 59.688 141.704C61.6507 143.411 63.912 144.264 66.472 144.264C70.7387 144.264 74.28 142.472 77.096 138.888C79.7413 135.645 81.064 131.805 81.064 127.368C81.064 122.845 79.8267 119.304 77.352 116.744C74.8773 114.013 71.4213 112.648 66.984 112.648C60.328 112.648 54.9093 115.037 50.728 119.816C46.8027 124.253 44.84 129.885 44.84 136.712C44.84 146.867 49.4053 154.077 58.536 158.344C61.608 159.709 64.5947 160.392 67.496 160.392H68.904C70.6107 160.136 72.1893 159.752 73.64 159.24C75.176 158.728 76.5413 158.173 77.736 157.576C81.9173 155.357 85.8853 151.901 89.64 147.208C93.3947 142.515 96.9787 136.627 100.392 129.544C103.379 123.229 107.859 111.581 113.832 94.6C116.563 87.0053 120.317 79.9227 125.096 73.352C130.643 65.8427 136.531 60.6373 142.76 57.736C131.667 57.736 122.835 58.888 116.264 61.192C106.792 64.4347 100.691 70.28 97.96 78.728C97.6187 79.8373 97.448 81.032 97.448 82.312C97.448 84.36 98.088 86.1093 99.368 87.56C100.648 89.0107 102.355 89.736 104.488 89.736C108.669 89.736 111.571 87.048 113.192 81.672C113.533 80.7333 113.704 80.008 113.704 79.496V78.472C113.619 78.216 113.576 77.96 113.576 77.704C113.661 77.5333 113.789 77.448 113.96 77.448C114.301 77.448 114.472 78.0027 114.472 79.112C114.472 82.3547 113.533 85.0853 111.656 87.304C109.608 89.6933 107.048 90.888 103.976 90.888C101.16 90.888 98.9413 89.9493 97.32 88.072C95.6987 86.3653 94.888 84.104 94.888 81.288C94.888 80.776 94.888 80.3067 94.888 79.88C94.9733 79.368 95.0587 78.9413 95.144 78.6C96.8507 70.2373 102.867 64.136 113.192 60.296C120.872 57.5653 129.875 56.2 140.2 56.2C144.296 56.2 146.472 56.328 146.728 56.584C146.387 56.6693 145.832 56.9253 145.064 57.352C144.381 57.6933 143.485 58.3333 142.376 59.272C133.331 66.44 126.675 77.192 122.408 91.528C116.947 109.619 111.187 123.741 105.128 133.896C95.656 149.683 84.3493 159.027 71.208 161.928C70.3547 162.013 69.5013 162.099 68.648 162.184C67.7947 162.355 66.8987 162.44 65.96 162.44Z" fill="#DAA520"/>
<path d="M115.456 166.096C109.483 166.096 106.496 164.091 106.496 160.08C106.496 158.288 107.008 156.837 108.032 155.728C109.227 154.448 110.592 153.808 112.128 153.808C113.237 153.808 113.792 154.107 113.792 154.704C113.792 155.216 113.664 155.472 113.408 155.472C113.323 155.472 113.024 155.387 112.512 155.216C112.256 155.131 111.957 155.088 111.616 155.088C110.677 155.088 109.867 155.557 109.184 156.496C108.501 157.264 108.16 158.203 108.16 159.312C108.16 161.019 109.099 162.384 110.976 163.408C112.683 164.176 114.432 164.56 116.224 164.56C122.795 164.56 128.811 161.957 134.272 156.752C136.405 154.789 138.496 152.357 140.544 149.456C142.677 146.555 144.768 143.184 146.816 139.344C146.816 139.259 147.541 137.68 148.992 134.608C150.528 131.536 152.747 127.013 155.648 121.04C162.816 106.363 170.923 95.8667 179.968 89.552C174.763 87.5893 168.277 86.608 160.512 86.608C156.075 86.608 151.893 86.992 147.968 87.76C144.043 88.4427 140.331 89.5093 136.832 90.96C128.555 94.288 122.411 99.28 118.4 105.936C115.925 110.117 114.688 114.256 114.688 118.352C114.688 122.704 116.053 126.331 118.784 129.232C121.515 132.219 125.056 133.712 129.408 133.712C134.272 133.712 138.581 131.963 142.336 128.464C146.091 124.88 147.968 120.699 147.968 115.92C147.968 112.592 147.072 109.861 145.28 107.728C143.403 105.509 140.8 104.4 137.472 104.4C134.997 104.4 132.779 105.168 130.816 106.704C128.853 108.411 127.872 110.544 127.872 113.104C127.872 115.152 128.981 116.176 131.2 116.176C131.371 116.176 131.499 116.048 131.584 115.792C131.84 115.536 132.053 115.408 132.224 115.408C132.395 115.493 132.48 115.621 132.48 115.792C132.48 116.645 132.011 117.072 131.072 117.072C128.171 117.072 126.72 115.707 126.72 112.976C126.72 110.245 127.957 107.856 130.432 105.808C132.821 103.845 135.381 102.864 138.112 102.864C141.781 102.864 144.768 104.059 147.072 106.448C149.461 108.837 150.656 111.867 150.656 115.536C150.656 121.168 148.437 125.904 144 129.744C139.819 133.328 134.869 135.12 129.152 135.12C123.776 135.12 119.381 133.541 115.968 130.384C112.299 126.971 110.464 122.747 110.464 117.712C110.464 114.128 111.36 110.629 113.152 107.216C117.077 99.4507 123.989 93.648 133.888 89.808C141.995 86.6507 151.211 85.072 161.536 85.072C169.216 85.072 176.128 86.0533 182.272 88.016C188.075 84.6027 193.323 82.896 198.016 82.896C198.699 82.896 199.04 82.9813 199.04 83.152C199.04 83.408 198.912 83.536 198.656 83.536C198.315 83.536 197.803 83.5787 197.12 83.664C196.523 83.664 195.84 83.7067 195.072 83.792C191.147 84.304 187.435 85.9253 183.936 88.656C193.067 92.1547 197.632 97.232 197.632 103.888C197.632 110.117 194.432 115.28 188.032 119.376C182.912 122.619 176.811 124.624 169.728 125.392C170.667 127.952 171.392 131.365 171.904 135.632C172.16 137.936 172.373 140.24 172.544 142.544C172.715 144.848 172.971 147.152 173.312 149.456C174.251 156.197 175.915 159.995 178.304 160.848C179.413 161.275 180.437 161.488 181.376 161.488C185.131 161.488 189.184 158.971 193.536 153.936C197.291 149.413 199.723 145.061 200.832 140.88L201.088 140.752L201.728 141.008V141.264C200.107 146.128 197.248 150.949 193.152 155.728C188.288 161.189 183.637 163.92 179.2 163.92C177.323 163.92 175.573 163.323 173.952 162.128C170.965 160.165 168.96 156.752 167.936 151.888C167.68 150.437 167.467 148.603 167.296 146.384C167.125 144.165 166.997 141.477 166.912 138.32C166.912 132.432 166.571 128.251 165.888 125.776H163.328C162.731 125.776 162.133 125.776 161.536 125.776C161.024 125.691 160.555 125.605 160.128 125.52C155.52 136.613 150.997 144.891 146.56 150.352C140.16 158.032 132.309 162.939 123.008 165.072C120.107 165.755 117.589 166.096 115.456 166.096ZM169.088 123.856C174.976 122.832 180.096 120.784 184.448 117.712C189.568 113.872 192.128 109.221 192.128 103.76C192.128 97.872 188.715 93.392 181.888 90.32C178.645 93.136 175.445 96.8907 172.288 101.584C169.216 106.277 166.187 111.909 163.2 118.48C165.845 119.504 167.808 121.296 169.088 123.856ZM163.456 124.24H164.352L165.504 124.112C164.736 122.149 163.755 120.784 162.56 120.016C162.304 120.443 162.048 120.997 161.792 121.68C161.536 122.363 161.195 123.173 160.768 124.112C161.195 124.112 161.621 124.155 162.048 124.24C162.56 124.24 163.029 124.24 163.456 124.24Z" fill="white"/>
</svg>
